# xmcd
#
# Track frame offsets: 
#        150
#        11177
#        31492
#        50527
#        62632
#        78477
#        92292
#        106342
#        119427
#        141847
#        170917
#
# Disc length: 4440 seconds
#
# Revision: 0
# Processed by: cddbd v1.5.1PL0 Copyright (c) Steve Scherf et al.
# Submitted via: ExactAudioCopy v0.95a5
#
DISCID=9311560b
DTITLE=The Blind Boys Of Alabama - Atom Bomb
DYEAR=2005
DGENRE=Gospel
TTITLE0=(Jesus Hits Like The) Atom Bomb
TTITLE1=Demons
TTITLE2=Talk About Suffering
TTITLE3=I Know I've Been Converted
TTITLE4=Old Blind Barnabas
TTITLE5=Spirit In The Sky
TTITLE6=Faith And Grace
TTITLE7=New Born Soul
TTITLE8=Presence Of The Lord
TTITLE9=Moses
TTITLE10=PC/MAC Player Software
EXTD=
EXTT0=
EXTT1=
EXTT2=
EXTT3=
EXTT4=
EXTT5=
EXTT6=
EXTT7=
EXTT8=
EXTT9=
EXTT10=
PLAYORDER=
